<svg width="80" height="80" viewBox="0 0 80 80" fill="none" xmlns="http://www.w3.org/2000/svg">
<path fill-rule="evenodd" clip-rule="evenodd" d="M24.1388 0.117682C22.6645 0.467808 21.1294 1.7221 20.4224 3.15435L20.0364 3.93623L19.9583 31.5366L19.8801 59.1369L15.7361 59.2151L11.5921 59.2933L10.5443 59.7897C9.21116 60.4213 8.18518 61.4472 7.55358 62.7804L7.05724 63.8282L7.00954 68.4921C6.97858 71.5138 7.02346 73.4533 7.13683 73.9997C7.54169 75.9497 8.96315 77.9033 10.741 78.9532C12.6619 80.0876 10.9771 80.0278 39.6616 79.9789L65.3855 79.935L66.4612 79.517C69.2702 78.4256 71.3481 76.0029 71.8699 73.2108C71.9971 72.5309 72.0326 62.8626 71.9992 38.1044L71.9533 3.93623L71.4217 2.95606C70.7858 1.78324 69.956 0.996828 68.7663 0.438879L67.8875 0.0268278L46.3076 0.0022768C34.0699 -0.0114843 24.4728 0.0383996 24.1388 0.117682ZM68.0439 2.69914C68.3879 2.87881 68.8805 3.32464 69.1385 3.68993L69.6076 4.35406V38.7042V73.0544L69.1257 74.0713C68.2848 75.8457 66.727 77.0975 64.8696 77.4917C63.9872 77.6789 20.271 77.7584 20.271 77.5727C20.271 77.5207 20.4508 77.2644 20.6705 77.0032C21.1735 76.4057 21.7696 75.2371 22.0209 74.3567C22.1704 73.8328 22.2331 65.8478 22.2981 39.0292L22.3821 4.37861L22.8298 3.73247C23.1102 3.32792 23.5759 2.93777 24.0756 2.68882L24.8739 2.291L46.1461 2.33165C67.3777 2.37247 67.4196 2.37309 68.0439 2.69914ZM26.2247 9.4305C25.8206 9.94419 25.8122 10.4385 26.1994 10.9167L26.4984 11.2859L41.9694 11.3272L57.4406 11.3686L57.8555 11.0423C58.3747 10.6338 58.4246 9.79814 57.9576 9.3312C57.6491 9.02267 57.4364 9.01845 42.0969 9.01845H26.5487L26.2247 9.4305ZM61.0851 9.3312C60.6194 9.79689 60.6681 10.6338 61.1844 11.0399C61.535 11.3158 61.816 11.3641 63.068 11.3641C64.4219 11.3641 64.5703 11.3334 64.9234 10.9802C65.3955 10.5082 65.4229 9.82691 64.9884 9.36075C64.6998 9.05082 64.5152 9.01845 63.0337 9.01845C61.6063 9.01845 61.358 9.05832 61.0851 9.3312ZM26.2844 17.8467C26.0733 18.0578 25.9005 18.4127 25.9005 18.6356C25.9005 18.8584 26.0733 19.2134 26.2844 19.4245L26.6682 19.8084H45.6477H64.6272L64.9673 19.4465C65.4483 18.9344 65.4164 18.1968 64.8952 17.7869C64.4837 17.4631 64.4671 17.4627 45.5758 17.4627H26.6682L26.2844 17.8467ZM26.6967 26.0775C25.6158 26.5097 25.6449 27.8284 26.7445 28.2466C27.0097 28.3475 29.1869 28.4091 32.4835 28.4091C38.3027 28.4091 38.7715 28.3476 38.9694 27.5593C39.1407 26.8764 38.9173 26.3759 38.332 26.1313C37.8994 25.9507 36.7533 25.9089 32.4342 25.9169C29.3873 25.9225 26.9107 25.992 26.6967 26.0775ZM42.1683 26.1071C41.956 26.2146 41.6745 26.495 41.5428 26.7302C41.3281 27.1143 41.3281 27.2018 41.5428 27.5859C42.0112 28.4231 41.7414 28.4042 53.3104 28.4067C65.0263 28.4092 65.0272 28.4092 65.2405 27.5593C65.4119 26.8764 65.1884 26.3759 64.6031 26.1313C63.8619 25.8217 42.7774 25.7988 42.1683 26.1071ZM50.8425 30.4296C49.6073 30.8864 41.2127 34.9404 40.8665 35.2474C39.9064 36.0989 39.4297 38.5227 39.4282 42.5611C39.4272 45.27 39.4759 45.9068 39.7917 47.3179C40.4518 50.2657 41.5596 52.8008 43.3172 55.3839C45.0539 57.9366 49.2448 61.8043 50.8766 62.3602C51.6186 62.613 53.0046 62.6101 53.7796 62.3541C55.3035 61.8507 59.3516 58.1691 61.1259 55.6731C63.1474 52.8295 64.5972 49.2573 65.083 45.9232C65.6024 42.3589 65.0957 37.13 64.0912 35.6877C63.7044 35.1323 63.2147 34.8555 59.2845 32.9709C52.9455 29.9311 52.5295 29.8058 50.8425 30.4296ZM57.3315 34.6691C59.8684 35.876 62.0276 36.9491 62.1299 37.0538C62.8606 37.803 63.1615 43.9069 62.5979 46.5487C61.526 51.5727 59.0471 55.4038 54.4392 59.1579C53.393 60.0102 53.0893 60.1534 52.3281 60.1534C51.5439 60.1534 51.3035 60.0311 49.9043 58.9208C45.322 55.2849 42.5547 50.568 41.8346 45.1657C41.5005 42.6593 41.9249 37.652 42.5219 37.0538C42.8694 36.7059 51.9303 32.4748 52.3281 32.4748C52.5431 32.4748 54.7946 33.4624 57.3315 34.6691ZM26.2247 34.9198C25.7947 35.4663 25.8153 36.0005 26.2844 36.4695L26.6682 36.8534H31.4519H36.2356L36.6193 36.4695C36.8304 36.2584 37.0032 35.9034 37.0032 35.6805C37.0032 35.4577 36.8304 35.1027 36.6193 34.8916L36.2356 34.5077H31.3922H26.5487L26.2247 34.9198ZM58.0358 40.4647C57.8638 40.5509 56.0342 42.7265 53.97 45.2997C51.9059 47.8727 50.1581 49.9805 50.0861 49.9835C50.014 49.9865 49.2048 49.2854 48.2878 48.4255C46.8832 47.1087 46.5403 46.8621 46.1121 46.8617C45.4389 46.8613 44.9784 47.3331 44.9784 48.0231C44.9784 48.5046 45.1609 48.7306 46.7739 50.2443C47.7613 51.1713 48.7289 52.0182 48.9241 52.1266C49.4637 52.4262 50.764 52.3813 51.3174 52.0439C51.5786 51.8845 53.5664 49.5558 55.735 46.8686C59.8893 41.721 60.0163 41.5104 59.4041 40.7867C59.073 40.3954 58.4613 40.2514 58.0358 40.4647ZM26.2907 43.3295C25.8156 43.8046 25.793 44.3369 26.2247 44.8856L26.5487 45.2977H31.4519H36.3551L36.6791 44.8856C37.0831 44.3721 37.0916 43.8778 36.7044 43.3994L36.4057 43.0302L31.5434 42.9847L26.681 42.9392L26.2907 43.3295ZM26.2247 51.9648C25.6976 52.6348 25.8191 53.2982 26.5373 53.6696C27.1913 54.0078 37.7454 54.0078 38.3994 53.6696C39.1362 53.2885 39.2662 52.4487 38.6743 51.8927C38.3159 51.556 38.2542 51.5527 32.4305 51.5527H26.5487L26.2247 51.9648ZM26.2844 60.3809C26.0733 60.592 25.9005 60.947 25.9005 61.1698C25.9005 61.3927 26.0733 61.7476 26.2844 61.9588L26.6682 62.3427H34.3167C41.8176 62.3427 41.973 62.3364 42.3771 62.0185C42.9094 61.5999 42.943 60.7781 42.4468 60.3159C42.112 60.0039 41.9377 59.997 34.3864 59.997H26.6682L26.2844 60.3809ZM19.932 67.5422L19.8801 73.5235L19.4297 74.4984C18.9037 75.6376 17.8112 76.7369 16.7149 77.2306C15.5716 77.7455 13.6047 77.7185 12.4291 77.1718C11.3063 76.6498 10.3452 75.69 9.81696 74.5631C9.40444 73.6832 9.40272 73.6635 9.3544 69.3014C9.31937 66.1368 9.36034 64.7277 9.50218 64.2192C9.74034 63.3649 11.0125 62.0218 11.8267 61.7652C12.1565 61.6613 13.8868 61.5864 16.179 61.5767L19.9841 61.5608L19.932 67.5422ZM26.2844 68.8252C25.8153 69.2942 25.7947 69.8284 26.2247 70.3749L26.5487 70.787H29.2029C31.8438 70.787 31.8591 70.7849 32.2583 70.3857C32.582 70.062 32.6411 69.8881 32.5636 69.4865C32.3783 68.5273 32.1044 68.4413 29.2382 68.4413C26.7181 68.4413 26.6607 68.4488 26.2844 68.8252ZM35.3543 68.8252C34.8617 69.3176 34.8524 69.9962 35.3322 70.447L35.6942 70.787H50.1607H64.6272L64.9673 70.4251C65.4183 69.9449 65.4006 69.3025 64.9234 68.8252L64.5396 68.4413H50.1388H35.738L35.3543 68.8252Z" fill="#C6AC8F"/>
</svg>
