<svg width="80" height="80" viewBox="0 0 80 80" fill="none" xmlns="http://www.w3.org/2000/svg">
<g clip-path="url(#clip0_236_382)">
<path fill-rule="evenodd" clip-rule="evenodd" d="M5.94209 0.116492C3.25503 0.644806 0.762308 3.12767 0.178021 5.85774C0.0804572 6.3135 0.000717716 7.91736 0.000717716 9.42194C0.000717716 12.1179 0.00634637 12.1629 0.384562 12.5412C0.844706 13.0015 1.39663 13.0326 1.89867 12.6265C2.25875 12.3354 2.26985 12.2518 2.34803 9.22587C2.41886 6.48721 2.46764 6.03801 2.76408 5.39259C3.23892 4.3591 4.26397 3.31045 5.29448 2.80434L6.17662 2.37124L14.1506 2.31949C18.5362 2.29088 25.0971 2.31683 28.7304 2.37687L35.3363 2.48616V10.2689C35.3363 17.6273 35.3533 18.1059 35.6502 19.0454C36.154 20.6402 37.0754 21.6538 38.7232 22.4257L39.6359 22.8534L47.7859 22.9014L55.9359 22.9492L56.0479 24.2303C56.1095 24.9349 56.1376 28.5367 56.1104 32.2345C56.0831 35.9322 56.1078 39.0323 56.1652 39.1236C56.2235 39.2165 53.9609 41.5978 51.0437 44.514L45.8176 49.7384L44.3686 49.7421C43.2455 49.7451 42.7786 49.8155 42.2939 50.055C40.8631 50.7623 39.7096 52.5691 39.7176 54.0906C39.7248 55.4581 40.022 55.8192 46.4075 62.2203C49.7346 65.5554 52.7323 68.4753 53.0688 68.7089C53.583 69.0657 53.8799 69.1426 54.9261 69.1901L56.1714 69.2466L56.0906 70.1364C55.9747 71.4146 55.4458 72.5186 54.5457 73.3604C53.3297 74.4978 52.6321 74.7413 50.3851 74.8121C49.0105 74.8556 48.4698 74.8218 48.4698 74.6926C48.4698 74.366 46.9753 73.0112 46.4085 72.8241L45.8523 72.6405L45.7785 71.5124C45.6927 70.1977 45.3336 69.3964 44.4571 68.5644C43.1817 67.3539 43.7159 67.4191 34.6327 67.3672C28.9177 67.3345 26.3119 67.3735 25.8615 67.4982C24.9081 67.7622 23.77 68.6968 23.3076 69.5957C23.0203 70.1544 22.8935 70.6791 22.8533 71.4763L22.7975 72.5822L22.1101 72.8664C21.7171 73.029 21.1247 73.4822 20.7266 73.9251L20.0303 74.6994L13.1817 74.6526L6.33297 74.6059L5.45427 74.1939C4.26319 73.6354 3.38011 72.7998 2.85883 71.7385L2.42417 70.8534L2.346 43.7818C2.26985 17.4383 2.25985 16.7014 1.96997 16.3812C1.53516 15.9007 0.736197 15.9409 0.324835 16.464L0.000717716 16.876V43.6364C0.000717716 73.1143 -0.061354 71.2202 0.969005 73.1535C1.53219 74.2101 2.85977 75.5042 4.03022 76.1375C5.51744 76.9422 6.36018 77.0237 13.2297 77.0266L19.5009 77.0293L19.5883 77.8753C19.6363 78.3406 19.8013 78.913 19.9548 79.1474C20.4425 79.8916 20.9772 80 24.1624 80C27.6528 80 27.9801 79.8963 27.9854 78.7883C27.9868 78.486 27.8611 78.1535 27.675 77.9674C27.3861 77.6785 27.1539 77.6547 24.6262 77.6547H21.89V77.1025C21.89 76.284 22.2734 75.5135 22.8578 75.1572C23.3638 74.8485 23.6183 74.8415 34.2887 74.841C46.264 74.8404 45.8577 74.809 46.3564 75.7733C46.4868 76.0257 46.5936 76.5521 46.5936 76.9433V77.6547H39.2451C32.1049 77.6547 31.8876 77.6636 31.5838 77.9674C30.9656 78.5856 31.2663 79.7208 32.1029 79.9273C32.2904 79.9736 35.9143 79.9912 40.1561 79.9667L47.8687 79.9218L48.4037 79.3379C48.8643 78.8352 48.9389 78.6444 48.9389 77.9698V77.1857H50.3914C53.4537 77.1857 55.6608 76.0984 57.2309 73.8164C58.0727 72.5928 58.3603 71.5465 58.4323 69.4462C58.4881 67.8194 58.5487 67.4709 58.889 66.8239C59.3536 65.9404 59.5286 64.6043 59.2747 63.8762C59.096 63.3634 59.1047 63.348 60.2316 62.2267L61.3689 61.0947L65.434 66.2756C67.6698 69.1251 69.8419 71.7946 70.2608 72.208C72.314 74.2342 74.6563 74.366 77.1379 72.5952C80.4114 70.2593 80.9538 66.482 78.3811 63.937C77.9669 63.5274 75.3175 61.3702 72.4933 59.1431L67.3586 55.0942L68.5071 53.9461L69.6555 52.798L70.2753 52.9692C73.3174 53.8103 76.4987 50.141 75.2773 47.2002C74.9673 46.4537 62.7393 34.1531 61.8467 33.6899C61.3388 33.4262 61.0358 33.3837 60.1268 33.4481C59.52 33.4911 58.9044 33.5758 58.7589 33.6363C58.5134 33.7384 58.4906 33.3266 58.4462 27.9834L58.3982 22.2204L57.888 21.1846C57.4241 20.2427 56.5063 19.2838 47.7612 10.604C39.0568 1.96426 38.0451 1.00989 37.0957 0.542395L36.0467 0.0259647L21.3462 0.00204284C13.2609 -0.0110907 6.32906 0.0405054 5.94209 0.116492ZM51.9877 18.0795L54.4894 20.5973L47.219 20.5526C39.2515 20.5039 39.5307 20.5364 38.5889 19.5448C37.6842 18.5924 37.6815 18.5667 37.6815 10.9567V3.9751L43.5838 9.76826C46.83 12.9546 50.6118 16.6946 51.9877 18.0795ZM11.4702 20.7393C11.0745 20.9013 10.6327 21.4876 10.6327 21.8508C10.6327 21.992 10.7785 22.293 10.9568 22.5195L11.2807 22.9315H20.8069C30.1246 22.9315 30.3399 22.9246 30.6457 22.6188C31.0671 22.1975 31.0588 21.351 30.6294 20.9623C30.3144 20.6772 29.9035 20.663 21.0529 20.6333C15.9666 20.6163 11.6546 20.664 11.4702 20.7393ZM11.1575 30.1204C10.7618 30.2824 10.3199 30.8687 10.3199 31.2319C10.3199 31.3731 10.4658 31.6741 10.6441 31.9007L10.968 32.3126H19.9903C30.1193 32.3126 29.7076 32.3583 29.7076 31.2335C29.7076 30.83 29.6027 30.5463 29.3786 30.3434C29.064 30.0587 28.6603 30.0441 20.2711 30.0144C15.443 29.9972 11.3419 30.0449 11.1575 30.1204ZM33.7727 30.0757C33.2463 30.2749 32.991 30.653 32.991 31.2335C32.991 32.3381 32.8112 32.3126 40.5975 32.3126H47.509L47.833 31.9007C48.255 31.3644 48.242 31.0216 47.7798 30.4843L47.4027 30.0455L40.7049 30.0163C37.0213 30.0002 33.9017 30.0269 33.7727 30.0757ZM67.0366 41.9105C73.0756 47.9754 73.1734 48.0836 73.1734 48.7022C73.1734 49.6733 72.0902 50.7622 71.1241 50.7622C70.8877 50.7622 69.9579 49.9501 68.1702 48.1824C65.331 45.3749 65.0847 45.234 64.3325 45.9864C63.6053 46.7134 63.7609 47.0277 65.9381 49.2281L67.9275 51.2387L62.7713 56.3949L57.6152 61.5511L52.5734 56.5075L47.5317 51.464L52.6866 46.3108L57.8414 41.1578L59.3105 42.5984C60.9331 44.1896 61.3165 44.3402 62.0013 43.6552C62.7262 42.9305 62.5728 42.6245 60.3526 40.3648C58.5527 38.5328 58.3202 38.2354 58.3211 37.7668C58.323 36.7574 59.3307 35.7575 60.3526 35.751C60.8663 35.7475 61.2746 36.1239 67.0366 41.9105ZM11.1575 39.5022C10.762 39.6634 10.3199 40.2497 10.3199 40.6131C10.3199 40.7542 10.4658 41.0552 10.6441 41.2818L10.968 41.6938H25.263C39.3493 41.6938 39.5623 41.6892 39.8705 41.3811C40.2656 40.986 40.2718 40.2744 39.8844 39.7958L39.5854 39.4267L25.5391 39.3962C17.8134 39.3794 11.3419 39.4271 11.1575 39.5022ZM11.4702 48.8828C11.0745 49.0447 10.6327 49.631 10.6327 49.9942C10.6327 50.1354 10.7785 50.4363 10.9568 50.6629L11.2807 51.0749H21.5887C31.6881 51.0749 31.9028 51.0686 32.2092 50.7622C32.6306 50.3408 32.6223 49.4943 32.1928 49.1056C31.8773 48.82 31.454 48.8065 21.8345 48.7768C16.3184 48.7598 11.6546 48.8075 11.4702 48.8828ZM50.8534 58.2272C57.6114 64.9836 57.4338 64.7554 56.7673 65.8317C56.3958 66.4316 55.6581 66.883 55.0196 66.9011C54.5896 66.9133 53.8927 66.2689 48.3727 60.7539C44.9811 57.3652 42.1652 54.4332 42.1152 54.238C41.8865 53.3479 43.0519 52.013 44.0576 52.013C44.6129 52.013 44.9039 52.2791 50.8534 58.2272ZM71.3648 61.249C74.6838 63.8742 77.0485 65.8553 77.2483 66.1785C78.0033 67.4002 77.7445 68.8188 76.5405 70.0577C75.1785 71.4591 73.6819 71.7903 72.4158 70.9707C71.9508 70.6697 70.4429 68.8756 67.3898 64.9902L63.0281 59.4397L64.3058 58.1498C65.0084 57.4403 65.6356 56.8599 65.6993 56.8599C65.763 56.8599 68.3125 58.8349 71.3648 61.249ZM11.1575 58.2643C10.762 58.4256 10.3199 59.0119 10.3199 59.3753C10.3199 59.5165 10.4658 59.8175 10.6441 60.044L10.968 60.456H22.9177C34.6588 60.456 34.8727 60.4505 35.1799 60.1433C35.575 59.7482 35.5813 59.0366 35.1938 58.558L34.8949 58.1889L23.1938 58.1583C16.7581 58.1414 11.3419 58.1891 11.1575 58.2643ZM42.3674 69.8807C42.9847 70.1931 43.4666 71.041 43.4666 71.8147V72.4951H34.32H25.1734V71.7765C25.1734 70.9569 25.4955 70.314 26.0916 69.9441C26.4567 69.7174 27.3612 69.6889 34.2418 69.6872C40.1256 69.6858 42.0738 69.7322 42.3674 69.8807Z" fill="#C6AC8F"/>
</g>
<defs>
<clipPath id="clip0_236_382">
<rect width="80" height="80" fill="white"/>
</clipPath>
</defs>
</svg>
