<svg width="80" height="80" viewBox="0 0 80 80" fill="none" xmlns="http://www.w3.org/2000/svg">
<path fill-rule="evenodd" clip-rule="evenodd" d="M51.4398 0.0783654C47.3888 0.564365 42.0611 2.44186 41.6477 3.52918C41.4305 4.10061 41.7216 4.7484 42.304 4.98968C42.7208 5.16227 42.8957 5.11908 44.1602 4.53169C47.524 2.9687 50.0526 2.41198 53.7869 2.41198C56.7347 2.41198 58.1797 2.62728 60.7433 3.44844C68.3501 5.88516 74.0668 12.2215 75.8562 20.1995C76.2585 21.9932 76.3421 26.4854 76.0102 28.4808C75.2236 33.2108 73.1577 37.1886 69.6794 40.6701C66.139 44.2139 62.1747 46.2372 57.2363 47.0208C56.0658 47.2065 55.0357 47.2467 53.0898 47.1827C49.4469 47.0627 47.1782 46.5123 43.8673 44.9444C42.7294 44.4057 41.8799 44.1006 41.5202 44.1015C41.2101 44.1023 39.1393 44.5914 36.9187 45.1887C34.6981 45.7858 32.7794 46.2353 32.6549 46.1876C32.5305 46.1399 32.4286 46.0061 32.4286 45.8904C32.4286 45.7748 32.9215 43.8524 33.5239 41.6186C34.1263 39.3847 34.6192 37.3518 34.6192 37.101C34.6192 36.8502 34.295 35.9813 33.899 35.1698C31.1327 29.5051 30.6404 23.6545 32.4538 17.9938C33.661 14.2251 35.3194 11.5918 38.4006 8.55159C40.2583 6.71853 40.4127 6.3804 39.7115 5.67941C39.1401 5.10782 38.6705 5.19231 37.6394 6.05259C35.3163 7.9908 33.1718 10.7513 31.7248 13.6665C30.1377 16.8638 29.4531 19.2792 29.1299 22.8218C28.7384 27.1114 29.764 32.3255 31.7487 36.1363L32.287 37.1697L31.1842 41.2893C30.5777 43.5548 30.0831 45.6248 30.085 45.8887C30.0906 46.6678 30.6242 47.6399 31.2818 48.0693C32.3873 48.7906 32.6333 48.7684 37.2629 47.5295L41.5085 46.3935L43.1882 47.1978C45.111 48.1184 46.5975 48.624 48.8908 49.1377C50.3109 49.4558 50.9075 49.4977 53.9434 49.4932C57.1578 49.4885 57.5101 49.4591 59.2634 49.0482C68.8377 46.8045 75.979 39.5724 78.157 29.9141C78.4613 28.565 78.504 27.9301 78.5024 24.7759C78.5009 21.4396 78.4707 21.051 78.0905 19.4482C77.8647 18.4975 77.394 16.9603 77.0443 16.0325C73.3998 6.36084 63.9337 -0.120353 53.6304 0.00169455C52.6838 0.0129605 51.698 0.0475406 51.4398 0.0783654ZM39.5433 13.031C39.0481 13.5263 39.0379 14.2043 39.5189 14.6563C39.833 14.9513 40.0605 14.9965 41.2282 14.9965H42.5754L41.6667 17.0697C39.5189 21.969 39.1421 23.8665 39.9633 25.647C41.4468 28.8636 45.7656 29.5538 48.0649 26.9418C48.8128 26.0918 49.3275 24.8071 49.3275 23.7889C49.3275 23.3816 49.1831 22.5274 49.0066 21.8904C48.6803 20.7128 47.3875 17.3584 46.848 16.2891C46.6847 15.9653 46.5022 15.5421 46.4423 15.3485L46.3334 14.9965H49.4735H52.6134V23.5241V32.0518H50.2543H47.8951L47.4378 32.5092C46.897 33.05 46.8632 33.4253 47.3048 33.9866L47.629 34.3989H53.8523C59.8901 34.3989 60.0839 34.3895 60.3606 34.0839C60.751 33.6524 60.7237 32.8952 60.3027 32.4734C59.983 32.1534 59.7899 32.1266 57.4587 32.0801L54.9578 32.0302L54.9981 23.5525L55.0387 15.0747L58.2072 15.0323C59.9498 15.009 61.3758 15.0145 61.3758 15.0444C61.3758 15.0742 60.9614 16.0439 60.4551 17.1991C59.1149 20.2564 58.5335 22.0658 58.4427 23.4627C58.3739 24.5204 58.4131 24.76 58.7963 25.6138C59.2931 26.7209 60.2579 27.693 61.3482 28.1854C62.4808 28.6968 64.1636 28.6569 65.3201 28.0909C67.0713 27.2342 68.1635 25.4927 68.1455 23.5855C68.1356 22.5365 67.2946 19.9541 66.0109 17.0306L65.152 15.0747L66.5642 14.9965C67.8089 14.9275 68.0117 14.8744 68.2749 14.5488C68.6548 14.0788 68.6546 13.5668 68.2744 13.0971L67.9752 12.7276L53.9526 12.686L39.93 12.6444L39.5433 13.031ZM45.7405 19.7257C46.7506 22.2369 46.8914 22.7092 46.8964 23.6024C46.9034 24.8517 46.4969 25.5218 45.4515 25.9843C44.4043 26.4477 43.501 26.2668 42.6617 25.4261C41.7436 24.5063 41.6692 23.9019 42.2522 22.1048C42.8795 20.1711 44.3284 16.7042 44.472 16.7929C44.5371 16.8331 45.1079 18.1528 45.7405 19.7257ZM64.6807 19.9815C65.9998 23.2736 66.0941 24.2434 65.1988 25.3075C63.7008 27.0878 60.7522 26.0338 60.7505 23.7172C60.7499 22.9175 61.6826 20.1431 62.7068 17.8982L63.2748 16.6533L63.5903 17.3506C63.764 17.7339 64.2547 18.918 64.6807 19.9815ZM7.44345 26.8992C6.56487 27.3342 4.32091 29.694 3.91033 30.6146C3.39304 31.775 3.45735 33.0402 4.09826 34.3027L4.61711 35.325L3.88373 36.1407C2.8928 37.2429 2.0222 38.7568 1.51101 40.2666C1.15785 41.3091 1.07492 41.8713 1.01468 43.6307C0.898734 47.0114 1.4517 49.2865 3.31496 53.0972C5.85245 58.2862 10.4028 64.0012 16.3121 69.4209C22.2825 74.8964 27.7373 78.2438 32.8409 79.5636C34.3158 79.9451 34.8311 80.003 36.7316 79.9999C39.121 79.9961 40.145 79.798 41.9075 78.9989C43.0952 78.4604 44.5324 77.4907 45.2422 76.7489L45.7728 76.1945L46.2677 76.5719C47.4666 77.4863 49.2431 77.7059 50.5792 77.1047C51.3414 76.7617 53.8856 74.3641 54.2806 73.6166C54.5837 73.0427 54.584 71.9571 54.281 71.3826C54.1513 71.1364 53.5865 70.4836 53.026 69.9319L52.0069 68.9291L52.7002 68.1366C53.6562 67.0436 53.9216 66.4246 53.9822 65.1455C54.0628 63.4471 53.8249 63.0937 49.9787 59.1922C46.229 55.3889 45.8817 55.1479 44.1639 55.1581C42.9395 55.1654 41.9025 55.6337 40.965 56.6029L40.3479 57.2409L39.0038 55.9257C37.5577 54.5106 37.0684 54.2851 35.9132 54.5018C35.4546 54.5879 35.0018 54.9334 33.8004 56.1136C32.9593 56.94 32.1352 57.9019 31.9689 58.2513C31.2972 59.6626 31.364 60.9398 32.1806 62.296L32.7015 63.1608L31.8218 64.0157C30.3802 65.4168 30.0175 65.3592 28.0285 63.4136C26.9178 62.3274 26.593 62.0943 26.1899 62.0943C25.5442 62.0943 25.0745 62.5759 25.0745 63.2381C25.0745 63.6884 25.284 63.9614 26.6783 65.3285C28.4176 67.0341 28.9479 67.3223 30.3219 67.3094C31.4018 67.2993 32.3352 66.8468 33.4996 65.7687L34.4849 64.8566L39.3207 69.6905L44.1564 74.5243L43.7299 74.9805C43.0183 75.7412 41.3024 76.7673 40.0242 77.1964C34.2983 79.1186 26.4946 75.663 17.2946 67.1311C9.79662 60.178 4.53497 52.3604 3.47832 46.6036C3.23422 45.2738 3.23141 43.1655 3.47206 41.9877C3.74322 40.6602 4.73415 38.6901 5.62088 37.7151L6.37616 36.8847L11.2132 41.7316L16.0501 46.5783L15.0969 47.6185C14.0551 48.7554 13.6511 49.6509 13.6536 50.8171C13.6566 52.2159 14.0932 52.7897 18.4745 57.1524C22.0234 60.6862 22.6088 61.2076 23.0264 61.2076C23.6961 61.2076 24.1356 60.7627 24.1356 60.0846C24.1356 59.5706 23.8488 59.2435 20.0674 55.4443C16.1922 51.5508 15.9991 51.3289 15.9991 50.7681C15.9991 50.2665 16.1295 50.0427 16.8779 49.258L17.7566 48.3366L18.247 48.7035C19.1965 49.4137 19.8011 49.632 20.8497 49.6436C22.3206 49.6598 23.2594 49.1522 24.9457 47.4287C27.1408 45.1855 27.1732 44.3085 25.1378 42.217L23.9831 41.0304L24.6205 40.4138C25.5864 39.4794 26.0568 38.4399 26.0682 37.214C26.0837 35.5696 25.8305 35.2136 21.8303 31.254C17.9949 27.4575 17.8516 27.3577 16.2338 27.3577C15.0868 27.3577 14.3692 27.6456 13.2826 28.5419L12.2859 29.364L11.2088 28.2652C10.1185 27.1533 9.20172 26.5849 8.48852 26.5789C8.27337 26.5771 7.80318 26.7212 7.44345 26.8992ZM23.0948 45.9746C21.6557 47.368 21.1023 47.5947 20.1937 47.1636C19.902 47.0252 16.5951 43.8325 12.8448 40.0686C5.62651 32.8243 5.61243 32.8071 5.99719 31.778C6.08559 31.5413 6.69912 30.8011 7.36036 30.1333L8.56284 28.919L16.4667 36.8294L24.3703 44.7398L23.0948 45.9746ZM20.2573 32.9495C22.5855 35.2681 23.5557 36.3399 23.6565 36.7048C23.8584 37.4361 23.6111 38.1483 22.9211 38.822L22.3285 39.4005L18.186 35.2509L14.0432 31.1011L14.7774 30.4029C15.4354 29.7772 15.5887 29.7048 16.2553 29.7048H16.9991L20.2573 32.9495ZM44.3589 64.5581C48.6407 68.8393 52.144 72.4181 52.144 72.511C52.144 72.604 51.5888 73.2203 50.9102 73.8808C49.6845 75.0734 49.6708 75.0814 48.8405 75.0814H48.0048L41.0098 68.0793C32.5805 59.6416 32.9622 60.3061 35.2161 57.9869C35.8642 57.32 36.435 56.7743 36.4843 56.7743C36.5336 56.7743 40.0772 60.277 44.3589 64.5581ZM44.8339 57.6176C45.1109 57.7372 46.7634 59.2726 48.506 61.0296L51.6745 64.224V64.9677C51.6745 65.6341 51.6021 65.7876 50.9764 66.4454L50.2782 67.1796L46.204 63.1124C43.9632 60.8755 42.1298 58.9706 42.1298 58.8793C42.1298 58.6004 43.1481 57.7074 43.631 57.563C44.2633 57.3739 44.2705 57.3743 44.8339 57.6176Z" fill="#C6AC8F"/>
</svg>
