<svg width="80" height="80" viewBox="0 0 80 80" fill="none" xmlns="http://www.w3.org/2000/svg">
<g clip-path="url(#clip0_236_384)">
<path fill-rule="evenodd" clip-rule="evenodd" d="M36.9652 0.0747947C28.2224 0.912645 21.2421 3.6826 14.8046 8.86871C6.78067 15.3329 1.65428 24.5044 0.202154 34.9936C-0.0673845 36.9407 -0.0673845 43.0525 0.202154 44.9996C1.85049 56.9061 8.20465 67.0262 18.1257 73.5455C31.2589 82.1756 48.7045 82.1493 61.8523 73.4795C66.209 70.6067 70.3519 66.5031 73.2127 62.2271C77.3551 56.0354 79.6104 49.0455 79.9062 41.4819C80.0613 37.5159 79.6677 33.9465 78.6285 29.8917C77.3674 24.9713 74.9514 19.9637 71.8905 15.9258C70.1332 13.6075 69.9 13.3905 69.227 13.4477C68.5251 13.5073 67.9861 14.1263 68.1317 14.7058C68.1836 14.9131 68.6794 15.6405 69.2333 16.322C72.6293 20.5006 75.1947 25.7162 76.5288 31.1541C77.3126 34.3485 77.5266 36.2658 77.5247 40.0748C77.5228 43.9535 77.2929 45.9046 76.4369 49.3068C73.1099 62.5304 62.4695 73.1707 49.2459 76.4978C45.8108 77.362 43.8973 77.5858 39.9357 77.5865C35.951 77.5872 34.1818 77.3792 30.6659 76.4971C17.3969 73.1679 6.76769 62.5546 3.43458 49.3068C2.56984 45.8702 2.34642 43.9584 2.34642 39.9966C2.34642 36.0348 2.56984 34.1231 3.43458 30.6864C6.76081 17.4659 17.4051 6.82169 30.6256 3.49546C34.0278 2.63947 35.9788 2.40949 39.8576 2.40761C43.7826 2.40574 45.6976 2.63087 49.1618 3.5014C54.3613 4.80813 59.2946 7.24288 63.3874 10.5217C64.2043 11.1762 65.0372 11.7531 65.2381 11.8035C65.8054 11.946 66.4257 11.3998 66.4846 10.7053C66.5418 10.0324 66.3248 9.79912 64.0065 8.0418C58.1319 3.58848 50.9064 0.820089 43.3753 0.136551C41.7109 -0.0144781 38.2453 -0.0477795 36.9652 0.0747947ZM37.2779 5.13192C32.6971 5.49213 28.6183 6.62626 24.3794 8.71815C15.2691 13.2143 8.56471 21.5009 6.07524 31.3425C5.30243 34.3974 5.02882 36.6508 5.02476 39.9966C5.01507 47.9438 7.51079 55.2041 12.45 61.5981C13.4261 62.8617 13.5834 62.9793 14.2966 62.9793C14.778 62.9793 15.3896 62.367 15.3896 61.885C15.3896 61.7362 14.7999 60.8245 14.0791 59.8589C11.6413 56.5926 10.0703 53.6053 8.92493 50.0569C5.17532 38.4413 8.15275 25.7988 16.6721 17.1619C21.9111 11.8505 28.258 8.69657 35.8708 7.62155C38.6956 7.22271 43.3256 7.40689 46.5022 8.04462C58.1324 10.3793 67.8312 19.2536 71.1709 30.6159C72.1663 34.0027 72.5012 36.3935 72.4956 40.0748C72.4873 45.6199 71.2379 50.6956 68.7433 55.3184C61.8541 68.085 47.6662 74.7884 33.5256 71.9577C28.5631 70.9643 23.98 68.8463 19.6605 65.5505C18.9341 64.9963 18.2131 64.5427 18.0584 64.5427C17.5669 64.5427 16.9531 65.1496 16.9531 65.6357C16.9531 66.349 17.0706 66.5062 18.3342 67.4823C26.5054 73.7944 36.4064 76.1905 46.5651 74.3142C57.3431 72.3237 66.7629 64.9875 71.5819 54.8312C73.8158 50.1234 74.8367 45.4701 74.8367 39.9966C74.8367 34.2455 73.7892 29.7018 71.2863 24.5967C66.0837 13.9854 55.9378 6.74821 44.2352 5.30077C42.3362 5.06594 39.1119 4.98777 37.2779 5.13192ZM21.3004 21.9158C20.5501 22.1252 20.3387 22.2498 19.5521 22.9472C18.9043 23.5216 18.3635 24.7596 18.3617 25.6729C18.3595 26.785 18.6468 27.5717 19.3448 28.3647C20.2902 29.4387 20.9669 29.7159 22.8551 29.802L24.4576 29.8752V42.5236C24.4576 56.5111 24.3965 55.6672 25.4978 56.8896C27.5096 59.123 31.2194 58.3501 32.1923 55.4947C32.3909 54.912 32.4312 53.7415 32.4312 48.5605V42.3275L32.0474 41.9439C31.8363 41.7328 31.4814 41.5601 31.2586 41.5601C31.0358 41.5601 30.6809 41.7328 30.4698 41.9439L30.086 42.3275L30.0854 48.4713C30.0849 54.2804 30.0684 54.642 29.7808 55.1134C29.3897 55.755 28.5434 56.0221 27.837 55.7268C26.8179 55.3007 26.8886 56.271 26.8028 41.5416C26.7293 28.9419 26.7077 28.1085 26.446 27.8463C26.2124 27.6122 25.8003 27.5545 23.8923 27.489L21.6171 27.4109L21.1612 26.9002C20.349 25.9906 20.6242 24.7324 21.7371 24.2674C22.3764 24.0002 27.9607 23.9603 28.8825 24.2163C29.2819 24.3271 29.5766 24.5449 29.7808 24.8798C30.0684 25.3512 30.0849 25.7128 30.0854 31.5219L30.086 37.6657L30.4698 38.0493C30.9589 38.5385 31.5583 38.5385 32.0474 38.0493L32.4312 37.6657V31.4327C32.4312 24.5734 32.4046 24.3446 31.473 23.2146C31.2087 22.8939 30.6303 22.4421 30.1875 22.2104C29.3875 21.7918 29.3593 21.789 25.7084 21.7501C23.0522 21.7218 21.8309 21.7678 21.3004 21.9158ZM44.4697 21.8461C43.1772 22.12 42.0256 23.0356 41.5519 24.1659C41.1734 25.0691 39.1129 37.9477 39.2033 38.8454C39.2946 39.7516 39.5794 40.3832 40.2329 41.1281L40.6807 41.6382L40.0436 41.6833C38.6648 41.7808 37.357 42.7247 36.7505 44.0599C36.4986 44.6144 36.4349 45.0544 36.4522 46.1184C36.4815 47.9134 36.8314 49.2793 37.7527 51.1935C39.2145 54.2312 42.0232 56.6332 45.2916 57.641C51.7807 59.6419 58.6696 56.0828 60.8979 49.5777C61.3993 48.114 61.4222 47.9478 61.4275 45.7032C61.4323 43.6715 61.3842 43.2014 61.0668 42.1854C59.4297 36.9449 55.0244 33.4301 49.7546 33.1598L48.0822 33.074L48.1599 32.6658C48.2026 32.4413 48.3241 31.7299 48.4298 31.085L48.6219 29.9124L52.6823 29.8342C56.5394 29.7599 56.78 29.7377 57.4849 29.3905C58.4354 28.9226 59.2666 27.9487 59.5606 26.9593C59.8503 25.9838 59.8504 25.5544 59.5615 24.586C59.2618 23.5817 58.6177 22.8209 57.5802 22.2462L56.7428 21.7825L50.8798 21.7564C47.6552 21.742 44.7707 21.7823 44.4697 21.8461ZM56.0175 24.1467C57.095 24.3623 57.7085 25.5904 57.2152 26.5442C56.7592 27.4263 56.3824 27.489 51.5374 27.489C47.2003 27.489 47.1807 27.4906 46.8457 27.8471C46.5738 28.1366 46.4189 28.7625 46.0368 31.1158C45.4971 34.4395 45.4827 34.6659 45.7857 35.081C45.9842 35.3529 46.2725 35.3937 48.5608 35.4739C50.7749 35.5514 51.2668 35.6174 52.2612 35.9709C53.8623 36.5401 54.9826 37.2476 56.182 38.4468C57.3738 39.6387 58.0803 40.7535 58.6669 42.3676C59.0412 43.3974 59.0837 43.7298 59.0837 45.625C59.0837 47.5202 59.0412 47.8526 58.6669 48.8825C58.0606 50.5508 57.3592 51.6457 56.0752 52.9283C55.171 53.8314 54.6434 54.2049 53.4955 54.7541C52.7017 55.1339 51.6655 55.5334 51.1925 55.642C50.0089 55.9137 47.7245 55.8709 46.5049 55.5541C42.1124 54.4133 38.8953 50.4573 38.7894 46.0668C38.7641 45.0164 38.7828 44.9566 39.2738 44.5179C39.993 43.875 40.9487 43.8744 41.5637 44.5164C41.9221 44.8904 42.0225 45.1757 42.1285 46.1206C42.3813 48.3751 43.3601 50.0818 45.0968 51.2961C48.0474 53.3591 52.2977 52.6819 54.4104 49.8122C56.5602 46.8919 56.2798 43.1793 53.7256 40.743C53.2277 40.268 52.5265 39.7296 52.1675 39.5463C50.1095 38.4965 47.2634 38.4929 44.6564 39.5368C43.3644 40.0541 42.9286 40.097 42.2951 39.7694C41.3324 39.2715 41.3341 39.203 42.5026 32.0387C43.0861 28.4615 43.6509 25.3237 43.7579 25.0657C43.9342 24.6404 44.2896 24.3653 44.9388 24.1514C45.2851 24.0373 55.4489 24.033 56.0175 24.1467ZM50.4007 41.3518C51.4208 41.6812 52.4929 42.6179 53.033 43.6515C53.6012 44.7385 53.6331 46.4455 53.1051 47.5168C52.677 48.3857 51.8056 49.2891 50.958 49.7425C50.0553 50.2255 47.9457 50.2212 47.0313 49.7347C45.4236 48.8793 44.6672 47.7099 44.4467 45.739C44.296 44.393 43.7696 43.177 43.1141 42.6613C42.7628 42.3851 42.764 42.384 43.5767 42.2972C44.0249 42.2492 44.7934 42.0307 45.2846 41.8115C46.9139 41.0843 48.9939 40.8975 50.4007 41.3518Z" fill="#C6AC8F"/>
</g>
<defs>
<clipPath id="clip0_236_384">
<rect width="80" height="80" fill="white"/>
</clipPath>
</defs>
</svg>
